<svg width="45" height="45" viewBox="0 0 45 45" fill="none" xmlns="http://www.w3.org/2000/svg">
<g clip-path="url(#clip0_56_72)">
<path d="M39.375 28.125V33.75H45V37.5H39.375V43.125H35.625V37.5H30V33.75H35.625V28.125H39.375ZM39.39 5.625C40.4175 5.625 41.25 6.45937 41.25 7.48687V24.375H37.5V9.375H7.5V35.6231L26.25 16.875L31.875 22.5V27.8044L26.25 22.1794L12.8006 35.625H26.25V39.375H5.61C5.11653 39.3745 4.64343 39.1781 4.29467 38.829C3.9459 38.4799 3.75 38.0066 3.75 37.5131V7.48687C3.75343 6.99446 3.95044 6.52316 4.29846 6.17478C4.64649 5.82641 5.11759 5.62893 5.61 5.625H39.39ZM15 13.125C15.9946 13.125 16.9484 13.5201 17.6516 14.2233C18.3549 14.9266 18.75 15.8804 18.75 16.875C18.75 17.8696 18.3549 18.8234 17.6516 19.5266C16.9484 20.2299 15.9946 20.625 15 20.625C14.0054 20.625 13.0516 20.2299 12.3483 19.5266C11.6451 18.8234 11.25 17.8696 11.25 16.875C11.25 15.8804 11.6451 14.9266 12.3483 14.2233C13.0516 13.5201 14.0054 13.125 15 13.125Z" fill="black"/>
</g>
<defs>
<clipPath id="clip0_56_72">
<rect width="45" height="45" fill="white"/>
</clipPath>
</defs>
</svg>
