<?xml version="1.0" standalone="no"?>
<!DOCTYPE svg PUBLIC "-//W3C//DTD SVG 20010904//EN"
 "http://www.w3.org/TR/2001/REC-SVG-20010904/DTD/svg10.dtd">
<svg version="1.0" xmlns="http://www.w3.org/2000/svg"
 width="1071.000000pt" height="1071.000000pt" viewBox="0 0 1071.000000 1071.000000"
 preserveAspectRatio="xMidYMid meet">
<metadata>
Created by potrace 1.14, written by Peter Selinger 2001-2017
</metadata>
<g transform="translate(0.000000,1071.000000) scale(0.100000,-0.100000)"
fill="#000000" stroke="none">
<path d="M3298 9563 l-898 -598 0 -1202 0 -1202 -30 -21 c-16 -12 -30 -18 -30
-14 0 4 -8 0 -18 -9 -10 -10 -22 -14 -25 -10 -4 3 -7 0 -7 -7 0 -7 -3 -10 -6
-7 -4 4 -19 -2 -34 -13 -15 -11 -30 -17 -34 -13 -3 3 -6 0 -6 -7 0 -7 -3 -10
-6 -7 -4 4 -19 -2 -33 -12 -14 -10 -29 -19 -33 -20 -11 -2 -182 -85 -188 -91
-3 -3 -39 -21 -80 -40 -41 -19 -76 -38 -78 -42 -2 -5 -9 -8 -15 -8 -11 0 -137
-60 -147 -70 -3 -3 -39 -21 -80 -40 -41 -19 -76 -38 -78 -42 -2 -5 -10 -8 -19
-8 -8 0 -28 -9 -44 -21 -16 -11 -29 -17 -29 -13 0 4 -8 0 -18 -9 -10 -10 -22
-14 -25 -10 -4 3 -7 1 -7 -5 0 -7 -3 -12 -7 -11 -16 2 -53 -14 -53 -22 0 -5
-9 -9 -19 -9 -11 0 -27 -7 -35 -16 -9 -9 -22 -17 -29 -19 -37 -9 -57 -18 -57
-26 0 -5 -3 -8 -7 -7 -9 2 -105 -43 -113 -53 -3 -4 -16 -10 -30 -14 -14 -4
-36 -15 -49 -24 -13 -8 -31 -16 -40 -18 -9 -1 -17 -7 -19 -12 -2 -6 -12 -11
-21 -11 -10 0 -28 -9 -41 -20 -13 -11 -31 -20 -41 -20 -10 0 -24 -7 -33 -15
-8 -9 -19 -16 -23 -17 -27 -4 -43 -12 -43 -20 0 -5 -4 -6 -10 -3 -5 3 -10 2
-10 -4 0 -5 -14 -12 -30 -16 -17 -4 -30 -10 -30 -15 0 -5 -13 -11 -30 -15 -16
-4 -30 -10 -30 -15 0 -4 -12 -11 -27 -15 -15 -3 -39 -15 -55 -26 -15 -11 -28
-17 -28 -13 0 4 -8 0 -18 -9 -10 -10 -22 -14 -25 -10 -4 3 -7 1 -7 -5 0 -7 -3
-11 -8 -10 -10 2 -66 -25 -74 -37 -4 -5 -8 -6 -8 -1 0 5 -9 1 -19 -8 -11 -10
-25 -19 -33 -21 -37 -9 -58 -18 -58 -26 0 -5 -3 -8 -8 -7 -10 2 -86 -35 -90
-45 -2 -4 -7 -5 -11 -3 -3 3 -18 -5 -31 -16 -14 -11 -19 -17 -12 -13 6 3 12 1
12 -5 0 -6 5 -8 10 -5 6 3 10 1 10 -5 0 -6 5 -8 10 -5 6 3 10 1 10 -5 0 -6 5
-8 10 -5 6 3 10 1 10 -5 0 -6 4 -9 9 -6 5 4 11 3 13 -1 3 -7 93 -56 108 -59
21 -5 70 -30 70 -37 0 -4 5 -5 10 -2 6 3 10 1 10 -5 0 -6 5 -8 10 -5 6 3 10 1
10 -5 0 -6 5 -8 10 -5 6 3 10 1 10 -5 0 -6 5 -8 10 -5 6 3 10 1 10 -4 0 -6 8
-11 17 -11 9 0 24 -7 34 -16 9 -8 23 -17 31 -18 7 -1 24 -8 38 -16 14 -8 28
-13 33 -12 4 1 7 -3 7 -9 0 -5 5 -7 10 -4 6 3 10 1 10 -6 0 -7 3 -9 7 -6 3 4
14 0 24 -9 9 -8 23 -17 31 -18 7 -1 24 -8 38 -16 14 -8 28 -13 33 -12 4 1 7
-3 7 -9 0 -5 5 -7 10 -4 6 3 10 1 10 -4 0 -6 9 -11 19 -11 11 0 21 -3 23 -7 4
-10 80 -47 90 -45 5 1 8 -3 8 -9 0 -5 4 -7 10 -4 5 3 10 1 10 -5 0 -6 5 -8 10
-5 6 3 10 1 10 -5 0 -6 5 -8 10 -5 6 3 10 1 10 -5 0 -6 5 -8 10 -5 6 3 10 1
10 -5 0 -6 5 -8 10 -5 6 3 10 2 10 -3 0 -9 37 -25 53 -23 4 1 7 -4 7 -10 0 -5
5 -7 10 -4 6 3 10 1 10 -5 0 -6 5 -8 10 -5 6 3 10 1 10 -5 0 -6 4 -9 9 -6 5 4
11 3 13 -1 4 -10 80 -47 91 -45 4 1 7 -3 7 -9 0 -5 5 -7 10 -4 6 3 10 1 10 -5
0 -6 5 -8 10 -5 6 3 10 1 10 -5 0 -6 5 -8 10 -5 6 3 10 1 10 -5 0 -6 5 -8 10
-5 6 3 10 1 10 -5 0 -6 5 -8 10 -5 6 3 10 1 10 -5 0 -6 4 -9 9 -5 5 3 13 0 16
-5 7 -12 55 -34 68 -32 4 1 7 -3 7 -9 0 -5 4 -7 10 -4 5 3 10 1 10 -5 0 -6 4
-8 10 -5 5 3 10 1 10 -5 0 -6 5 -8 10 -5 6 3 10 2 10 -3 0 -9 37 -25 53 -23 4
1 7 -4 7 -10 0 -5 5 -7 10 -4 6 3 10 1 10 -4 0 -6 9 -11 20 -11 11 0 20 -4 20
-9 0 -7 42 -24 46 -18 1 1 10 -5 20 -14 21 -17 55 -33 67 -31 4 1 7 -3 7 -9 0
-5 5 -7 10 -4 5 3 10 1 10 -5 0 -6 5 -8 10 -5 6 3 10 1 10 -5 0 -6 4 -8 10 -5
5 3 10 3 10 -2 0 -6 47 -32 70 -39 27 -7 70 -30 70 -37 0 -4 5 -5 10 -2 6 3
10 1 10 -5 0 -6 5 -8 10 -5 6 3 10 1 10 -5 0 -6 5 -8 10 -5 6 3 10 1 10 -5 0
-6 4 -9 9 -6 5 3 14 -1 21 -9 7 -8 21 -15 31 -15 11 0 19 -5 19 -11 0 -5 4 -8
9 -5 5 4 11 1 13 -4 2 -6 11 -12 20 -13 9 -2 23 -9 31 -16 9 -7 22 -14 29 -16
30 -6 78 -30 78 -38 0 -4 5 -5 10 -2 6 3 10 1 10 -5 0 -6 5 -8 10 -5 6 3 10 1
10 -5 0 -6 4 -8 10 -5 6 3 10 1 10 -5 0 -6 4 -9 9 -6 5 3 14 -1 21 -9 7 -8 21
-15 31 -15 11 0 19 -3 19 -8 0 -4 10 -12 23 -17 l22 -10 3 -1205 2 -1205 862
-575 c475 -316 880 -586 901 -599 l39 -23 -4 2251 c-3 2223 -3 2251 -23 2257
-10 4 -25 13 -33 20 -7 8 -17 12 -22 9 -4 -3 -13 2 -20 10 -7 8 -16 12 -21 9
-5 -3 -9 0 -9 6 0 6 -4 8 -10 5 -5 -3 -10 -1 -10 5 0 6 -4 8 -10 5 -5 -3 -10
-1 -10 5 0 6 -4 8 -10 5 -5 -3 -10 -1 -10 5 0 6 -5 8 -10 5 -5 -3 -10 -1 -10
5 0 6 -4 8 -10 5 -6 -3 -10 -2 -10 3 0 8 -35 23 -43 19 -2 -1 -11 6 -21 16
-10 9 -22 15 -27 12 -5 -4 -9 -1 -9 4 0 6 -3 10 -7 9 -5 -1 -26 7 -48 19 -22
11 -43 20 -46 19 -4 0 -16 7 -26 17 -11 9 -23 14 -26 10 -4 -3 -7 -1 -7 6 0 7
-4 9 -10 6 -5 -3 -10 -1 -10 5 0 6 -4 9 -9 6 -5 -4 -11 -1 -13 4 -2 6 -10 12
-18 13 -21 4 -40 17 -40 28 0 6 30 24 68 41 37 18 69 35 70 40 2 4 8 8 14 8
15 0 102 43 106 53 2 4 8 5 13 1 5 -3 9 0 9 6 0 6 5 8 10 5 6 -3 10 -1 10 5 0
6 4 9 9 5 5 -3 16 1 24 9 8 8 17 12 21 9 3 -4 6 -1 6 5 0 7 5 12 10 12 15 0
105 43 108 52 2 5 8 6 13 2 5 -3 9 0 9 5 0 6 3 11 8 10 13 -2 52 13 52 21 0 4
18 13 40 20 22 7 40 17 40 22 0 4 6 8 13 8 19 0 67 24 67 33 0 5 5 5 10 2 6
-3 10 -1 10 5 0 6 5 8 10 5 6 -3 10 -1 10 4 0 6 9 11 19 11 11 0 27 7 35 16 9
9 22 17 29 18 20 4 70 29 100 49 15 10 27 15 27 11 0 -4 8 0 18 9 10 10 22 14
25 10 4 -3 7 -1 7 5 0 7 5 12 11 12 16 0 163 73 167 83 2 4 12 7 22 7 10 0 26
7 34 16 9 9 22 17 29 18 21 4 152 70 155 78 2 5 8 6 13 2 5 -3 9 0 9 5 0 6 3
10 8 10 13 -3 72 25 72 34 0 4 5 5 10 2 6 -3 10 -1 10 5 0 6 5 8 10 5 6 -3 10
-1 10 5 0 6 4 9 9 5 5 -3 16 1 24 9 8 8 17 12 21 9 3 -4 6 -1 6 5 0 7 5 12 10
12 15 0 105 43 108 52 2 5 8 6 13 2 5 -3 9 0 9 5 0 6 3 11 8 10 13 -2 52 13
52 21 0 4 18 13 40 20 22 7 40 17 40 22 0 4 6 8 13 8 19 0 67 24 67 33 0 5 5
5 10 2 6 -3 10 -1 10 5 0 6 5 8 10 5 6 -3 10 -1 10 4 0 6 9 11 19 11 11 0 27
7 35 16 9 9 22 17 29 19 38 9 57 18 57 27 0 5 5 6 10 3 6 -3 10 -1 10 5 0 6 5
8 10 5 6 -3 10 -1 10 5 0 6 4 9 9 5 5 -3 17 2 25 11 9 8 16 12 16 7 0 -4 4 -3
8 3 4 6 25 17 47 26 l40 16 3 896 c2 965 5 922 -48 876 -13 -11 -31 -20 -41
-20 -10 0 -24 -7 -33 -15 -8 -9 -18 -16 -20 -16 -23 -2 -46 -13 -46 -21 0 -5
-4 -6 -10 -3 -5 3 -10 2 -10 -4 0 -5 -13 -12 -30 -16 -16 -4 -30 -10 -30 -15
0 -5 -13 -11 -30 -15 -16 -4 -30 -10 -30 -15 0 -4 -12 -11 -27 -15 -15 -3 -39
-15 -55 -26 -15 -11 -28 -17 -28 -13 0 4 -8 0 -18 -9 -10 -10 -22 -14 -25 -10
-4 3 -7 1 -7 -5 0 -7 -3 -12 -7 -11 -16 2 -53 -14 -53 -22 0 -5 -9 -9 -19 -9
-11 0 -27 -7 -35 -16 -9 -9 -22 -17 -29 -19 -37 -9 -57 -18 -57 -26 0 -5 -3
-8 -7 -7 -9 2 -106 -44 -113 -54 -3 -3 -18 -10 -33 -13 -15 -4 -27 -11 -27
-16 0 -5 -9 -9 -19 -9 -11 0 -27 -7 -35 -16 -9 -9 -22 -17 -29 -19 -37 -9 -57
-18 -57 -26 0 -5 -3 -8 -7 -7 -9 2 -105 -43 -113 -53 -3 -4 -16 -10 -30 -14
-14 -4 -36 -15 -49 -24 -13 -8 -31 -16 -40 -18 -9 -1 -17 -7 -19 -12 -2 -6
-12 -11 -21 -11 -10 0 -28 -9 -41 -20 -13 -11 -31 -20 -41 -20 -10 0 -24 -7
-33 -15 -8 -9 -17 -16 -18 -16 -16 1 -48 -13 -48 -21 0 -5 -4 -6 -10 -3 -5 3
-10 1 -10 -4 0 -6 -3 -10 -7 -9 -5 1 -19 -4 -33 -12 -14 -8 -32 -15 -40 -16
-8 -2 -16 -8 -18 -13 -2 -6 -12 -11 -22 -11 -10 0 -25 -6 -32 -12 -7 -7 -39
-25 -71 -41 -42 -20 -59 -24 -62 -15 -3 7 -6 615 -8 1351 l-2 1338 -897 -598z"/>
<path d="M6520 7902 l0 -2237 290 -145 c189 -94 290 -150 290 -160 0 -10 -394
-212 -1190 -610 l-1190 -595 0 -887 c0 -489 2 -888 5 -888 13 0 1781 886 1785
895 3 6 7 -598 10 -1341 l5 -1352 887 592 888 591 -3 1199 -2 1199 1193 596
c655 328 1192 598 1192 601 0 3 -535 273 -1190 600 l-1190 595 0 1200 0 1200
-862 575 c-474 316 -875 583 -890 592 l-28 18 0 -2238z m45 -472 c3 -5 1 -10
-4 -10 -6 0 -11 5 -11 10 0 6 2 10 4 10 3 0 8 -4 11 -10z m46 -28 c-7 -2 -18
1 -23 6 -8 8 -4 9 13 5 13 -4 18 -8 10 -11z m59 -26 c0 -2 -9 -2 -20 1 -11 3
-20 9 -20 15 0 5 9 4 20 -2 11 -6 20 -12 20 -14z m70 -42 c0 -2 -9 0 -20 6
-11 6 -20 13 -20 16 0 2 9 0 20 -6 11 -6 20 -13 20 -16z m31 -11 c13 -16 12
-17 -3 -4 -10 7 -18 15 -18 17 0 8 8 3 21 -13z m59 -26 c0 -2 -8 -3 -18 -3
-10 0 -19 6 -19 13 0 8 6 9 19 2 10 -5 18 -11 18 -12z m95 -47 c3 -5 1 -10 -4
-10 -6 0 -11 5 -11 10 0 6 2 10 4 10 3 0 8 -4 11 -10z m55 -36 c0 -2 -9 0 -20
6 -11 6 -20 13 -20 16 0 2 9 0 20 -6 11 -6 20 -13 20 -16z m60 -24 c0 -5 -2
-10 -4 -10 -3 0 -8 5 -11 10 -3 6 -1 10 4 10 6 0 11 -4 11 -10z m111 -57 c13
-17 13 -17 -6 -3 -11 8 -22 16 -24 17 -2 2 0 3 6 3 6 0 17 -8 24 -17z m74 -34
c5 -5 -5 -4 -23 2 -17 6 -32 13 -32 16 0 7 43 -8 55 -18z m66 -36 c13 -16 12
-17 -3 -4 -10 7 -18 15 -18 17 0 8 8 3 21 -13z m49 -23 c8 -5 11 -10 5 -10 -5
0 -17 5 -25 10 -8 5 -10 10 -5 10 6 0 17 -5 25 -10z m45 -20 c3 -6 -1 -7 -9
-4 -18 7 -21 14 -7 14 6 0 13 -4 16 -10z m65 -35 c11 -13 10 -14 -4 -9 -9 3
-16 10 -16 15 0 13 6 11 20 -6z m41 -22 c13 -16 12 -17 -3 -4 -10 7 -18 15
-18 17 0 8 8 3 21 -13z m34 -13 c3 -5 1 -10 -4 -10 -6 0 -11 5 -11 10 0 6 2
10 4 10 3 0 8 -4 11 -10z m46 -28 c-7 -2 -18 1 -23 6 -8 8 -4 9 13 5 13 -4 18
-8 10 -11z m59 -26 c0 -2 -9 -2 -20 1 -11 3 -20 9 -20 15 0 5 9 4 20 -2 11 -6
20 -12 20 -14z m70 -42 c0 -2 -9 0 -20 6 -11 6 -20 13 -20 16 0 2 9 0 20 -6
11 -6 20 -13 20 -16z m31 -11 c13 -16 12 -17 -3 -4 -10 7 -18 15 -18 17 0 8 8
3 21 -13z m59 -26 c0 -2 -8 -3 -18 -3 -10 0 -19 6 -19 13 0 8 6 9 19 2 10 -5
18 -11 18 -12z m40 -22 c5 3 11 1 14 -4 4 -5 -2 -8 -11 -7 -9 2 -18 8 -19 15
-1 6 0 7 3 1 2 -5 9 -8 13 -5z m135 -65 c3 -5 1 -10 -4 -10 -6 0 -11 5 -11 10
0 6 2 10 4 10 3 0 8 -4 11 -10z m60 -30 c3 -5 -4 -6 -15 -3 -11 3 -22 9 -25
13 -3 5 4 6 15 3 11 -3 22 -9 25 -13z m65 -35 c11 -13 10 -14 -4 -9 -9 3 -16
10 -16 15 0 13 6 11 20 -6z m41 -22 c13 -16 12 -17 -3 -4 -10 7 -18 15 -18 17
0 8 8 3 21 -13z m34 -13 c3 -5 1 -10 -4 -10 -6 0 -11 5 -11 10 0 6 2 10 4 10
3 0 8 -4 11 -10z m46 -28 c-7 -2 -18 1 -23 6 -8 8 -4 9 13 5 13 -4 18 -8 10
-11z m59 -26 c0 -2 -9 -2 -20 1 -11 3 -20 9 -20 15 0 5 9 4 20 -2 11 -6 20
-12 20 -14z m-10 -2430 c0 -2 -8 -10 -17 -17 -16 -13 -17 -12 -4 4 13 16 21
21 21 13z m-40 -30 c0 -2 -7 -7 -16 -10 -8 -3 -12 -2 -9 4 6 10 25 14 25 6z
m-100 -46 c0 -5 -8 -10 -17 -10 -15 0 -16 2 -3 10 19 12 20 12 20 0z m-45 -20
c-3 -5 -12 -10 -18 -10 -7 0 -6 4 3 10 19 12 23 12 15 0z m-70 -40 c-3 -5 -11
-10 -16 -10 -6 0 -7 5 -4 10 3 6 11 10 16 10 6 0 7 -4 4 -10z m-40 -20 c-3 -5
-14 -10 -23 -9 -14 0 -13 2 3 9 27 11 27 11 20 0z m-75 -35 c0 -2 -10 -10 -22
-16 -21 -11 -22 -11 -9 4 13 16 31 23 31 12z m-55 -25 c-3 -5 -12 -10 -18 -10
-7 0 -6 4 3 10 19 12 23 12 15 0z m-55 -24 c0 -2 -8 -10 -17 -17 -16 -13 -17
-12 -4 4 13 16 21 21 21 13z m-70 -40 c0 -3 -4 -8 -10 -11 -5 -3 -10 -1 -10 4
0 6 5 11 10 11 6 0 10 -2 10 -4z m-35 -16 c-3 -5 -12 -10 -18 -10 -7 0 -6 4 3
10 19 12 23 12 15 0z m-55 -24 c0 -2 -8 -10 -17 -17 -16 -13 -17 -12 -4 4 13
16 21 21 21 13z m-40 -30 c0 -2 -7 -7 -16 -10 -8 -3 -12 -2 -9 4 6 10 25 14
25 6z m-100 -46 c0 -5 -8 -10 -17 -10 -15 0 -16 2 -3 10 19 12 20 12 20 0z
m-45 -20 c-3 -5 -12 -10 -18 -10 -7 0 -6 4 3 10 19 12 23 12 15 0z m-75 -45
c-7 -8 -16 -13 -20 -10 -5 3 -11 1 -15 -5 -3 -5 -14 -10 -23 -9 -12 0 -9 4 8
11 14 6 28 12 32 12 3 1 10 4 14 9 13 13 17 7 4 -8z m-110 -50 c0 -2 -10 -10
-22 -16 -21 -11 -22 -11 -9 4 13 16 31 23 31 12z m-55 -25 c-3 -5 -12 -10 -18
-10 -7 0 -6 4 3 10 19 12 23 12 15 0z m-55 -24 c0 -2 -8 -10 -17 -17 -16 -13
-17 -12 -4 4 13 16 21 21 21 13z m-70 -40 c0 -3 -4 -8 -10 -11 -5 -3 -10 -1
-10 4 0 6 5 11 10 11 6 0 10 -2 10 -4z m-60 -30 c0 -3 -4 -8 -10 -11 -5 -3
-10 -1 -10 4 0 6 5 11 10 11 6 0 10 -2 10 -4z m-45 -26 c-27 -12 -43 -12 -25
0 8 5 22 9 30 9 10 0 8 -3 -5 -9z m-75 -34 c0 -2 -7 -7 -16 -10 -8 -3 -12 -2
-9 4 6 10 25 14 25 6z m-50 -26 c-8 -5 -19 -10 -25 -10 -5 0 -3 5 5 10 8 5 20
10 25 10 6 0 3 -5 -5 -10z m-60 -25 c0 -2 -10 -9 -22 -15 -22 -11 -22 -10 -4
4 21 17 26 19 26 11z m-53 -40 c0 -8 -4 -12 -9 -9 -4 3 -8 9 -8 15 0 5 4 9 8
9 5 0 9 -7 9 -15z m-67 -19 c0 -2 -8 -10 -17 -17 -16 -13 -17 -12 -4 4 13 16
21 21 21 13z m-40 -30 c0 -2 -7 -7 -16 -10 -8 -3 -12 -2 -9 4 6 10 25 14 25 6z"/>
</g>
</svg>
