<svg xmlns="http://www.w3.org/2000/svg" xmlns:xlink="http://www.w3.org/1999/xlink" viewBox="0 0 610.7 522"><defs><style>.cls-1{isolation:isolate;}.cls-2{opacity:0.11;}.cls-2,.cls-51,.cls-8{mix-blend-mode:lighten;}.cls-3{opacity:0.76;}.cls-4{fill:url(#linear-gradient);}.cls-5{opacity:0.82;}.cls-6{fill:#2c2c49;}.cls-7{opacity:0.59;fill:url(#radial-gradient);}.cls-12,.cls-24,.cls-28,.cls-33,.cls-40,.cls-48,.cls-50,.cls-7{mix-blend-mode:multiply;}.cls-8{opacity:0.32;fill:url(#radial-gradient-2);}.cls-9{fill:#dee5f1;}.cls-10{fill:#fff;}.cls-10,.cls-58{opacity:0.55;}.cls-11{fill:url(#linear-gradient-2);}.cls-12{fill:url(#linear-gradient-3);}.cls-13{fill:#4e5768;}.cls-14{fill:url(#linear-gradient-4);}.cls-15{fill:#758199;}.cls-16{fill:url(#linear-gradient-5);}.cls-17{fill:url(#linear-gradient-6);}.cls-18{opacity:0.8;}.cls-18,.cls-21,.cls-25,.cls-35{mix-blend-mode:screen;}.cls-19{fill:url(#linear-gradient-7);}.cls-20{fill:url(#linear-gradient-8);}.cls-21{fill:#e9f7fe;opacity:0.38;}.cls-22{fill:url(#linear-gradient-9);}.cls-23{fill:url(#linear-gradient-10);}.cls-24{fill:url(#linear-gradient-11);}.cls-25,.cls-56{opacity:0.35;}.cls-26{fill:url(#linear-gradient-12);}.cls-27{fill:url(#linear-gradient-13);}.cls-28{fill:url(#linear-gradient-14);}.cls-29{opacity:0.52;}.cls-30{fill:url(#linear-gradient-15);}.cls-31{fill:#64cced;}.cls-32{fill:url(#linear-gradient-16);}.cls-33{fill:url(#linear-gradient-17);}.cls-34{fill:url(#linear-gradient-18);}.cls-35,.cls-55{opacity:0.75;}.cls-36{fill:url(#linear-gradient-19);}.cls-37{fill:url(#linear-gradient-20);}.cls-38{fill:url(#linear-gradient-21);}.cls-39{fill:url(#linear-gradient-22);}.cls-40{opacity:0.7;fill:url(#linear-gradient-23);}.cls-41{fill:url(#linear-gradient-24);}.cls-42{fill:url(#linear-gradient-25);}.cls-43{fill:url(#linear-gradient-26);}.cls-44{opacity:0.36;mix-blend-mode:overlay;fill:url(#linear-gradient-27);}.cls-45{fill:url(#linear-gradient-28);}.cls-46{fill:url(#linear-gradient-29);}.cls-47{fill:url(#linear-gradient-30);}.cls-48,.cls-50,.cls-60{opacity:0.56;}.cls-48{fill:url(#linear-gradient-31);}.cls-49{fill:url(#linear-gradient-32);}.cls-50{fill:url(#linear-gradient-33);}.cls-51{opacity:0.91;}.cls-52{opacity:0.6;}.cls-53{fill:url(#linear-gradient-34);}.cls-54{fill:url(#linear-gradient-35);}.cls-57{fill:url(#linear-gradient-36);}.cls-59{fill:url(#linear-gradient-37);}.cls-61{opacity:0.45;}.cls-62{fill:url(#linear-gradient-38);}.cls-63{fill:url(#linear-gradient-39);}.cls-64,.cls-67,.cls-70,.cls-73,.cls-76,.cls-79,.cls-82,.cls-85,.cls-88,.cls-91{opacity:0.42;}.cls-64,.cls-65,.cls-66,.cls-67,.cls-68,.cls-69,.cls-70,.cls-71,.cls-72,.cls-73,.cls-74,.cls-75,.cls-76,.cls-77,.cls-78,.cls-79,.cls-80,.cls-81,.cls-82,.cls-83,.cls-84,.cls-85,.cls-86,.cls-87,.cls-88,.cls-89,.cls-90,.cls-91,.cls-92,.cls-93{mix-blend-mode:color-dodge;}.cls-64{fill:url(#radial-gradient-3);}.cls-65{fill:url(#radial-gradient-4);}.cls-66,.cls-69,.cls-72,.cls-75,.cls-78,.cls-81,.cls-84,.cls-87,.cls-90,.cls-93{opacity:0.74;}.cls-66{fill:url(#radial-gradient-5);}.cls-67{fill:url(#radial-gradient-6);}.cls-68{fill:url(#radial-gradient-7);}.cls-69{fill:url(#radial-gradient-8);}.cls-70{fill:url(#radial-gradient-9);}.cls-71{fill:url(#radial-gradient-10);}.cls-72{fill:url(#radial-gradient-11);}.cls-73{fill:url(#radial-gradient-12);}.cls-74{fill:url(#radial-gradient-13);}.cls-75{fill:url(#radial-gradient-14);}.cls-76{fill:url(#radial-gradient-15);}.cls-77{fill:url(#radial-gradient-16);}.cls-78{fill:url(#radial-gradient-17);}.cls-79{fill:url(#radial-gradient-18);}.cls-80{fill:url(#radial-gradient-19);}.cls-81{fill:url(#radial-gradient-20);}.cls-82{fill:url(#radial-gradient-21);}.cls-83{fill:url(#radial-gradient-22);}.cls-84{fill:url(#radial-gradient-23);}.cls-85{fill:url(#radial-gradient-24);}.cls-86{fill:url(#radial-gradient-25);}.cls-87{fill:url(#radial-gradient-26);}.cls-88{fill:url(#radial-gradient-27);}.cls-89{fill:url(#radial-gradient-28);}.cls-90{fill:url(#radial-gradient-29);}.cls-91{fill:url(#radial-gradient-30);}.cls-92{fill:url(#radial-gradient-31);}.cls-93{fill:url(#radial-gradient-32);}</style><linearGradient id="linear-gradient" x1="563.27" y1="553.26" x2="105.48" y2="26.07" gradientUnits="userSpaceOnUse"><stop offset="0" stop-color="#00589e"/><stop offset="1" stop-color="#00bcea"/></linearGradient><radialGradient id="radial-gradient" cx="400.89" cy="1020.42" r="55.37" gradientTransform="translate(-572.7 295.5) scale(2.2 0.21)" gradientUnits="userSpaceOnUse"><stop offset="0" stop-color="#1c0c39"/><stop offset="1" stop-color="#1c0c39" stop-opacity="0"/></radialGradient><radialGradient id="radial-gradient-2" cx="439.21" cy="389.87" r="221.49" gradientTransform="translate(-2.8 -49.9) scale(0.93)" gradientUnits="userSpaceOnUse"><stop offset="0" stop-color="#00bcea"/><stop offset="1" stop-color="#4e2e91" stop-opacity="0"/></radialGradient><linearGradient id="linear-gradient-2" x1="452.95" y1="420.24" x2="311.72" y2="399.67" gradientUnits="userSpaceOnUse"><stop offset="0.01" stop-color="#5a7eb9"/><stop offset="1" stop-color="#dee5f1"/></linearGradient><linearGradient id="linear-gradient-3" x1="350.39" y1="578.23" x2="391.52" y2="436.32" gradientUnits="userSpaceOnUse"><stop offset="0" stop-color="#a5b7d8"/><stop offset="1" stop-color="#dee5f1"/></linearGradient><linearGradient id="linear-gradient-4" x1="311.03" y1="248.15" x2="401.53" y2="264.34" gradientUnits="userSpaceOnUse"><stop offset="0" stop-color="#4e5768"/><stop offset="1" stop-color="#262d36"/></linearGradient><linearGradient id="linear-gradient-5" x1="332.29" y1="274.56" x2="372.91" y2="296.67" xlink:href="#linear-gradient-4"/><linearGradient id="linear-gradient-6" x1="288.84" y1="183.27" x2="308.44" y2="202.18" gradientUnits="userSpaceOnUse"><stop offset="0" stop-color="#17479e"/><stop offset="1" stop-color="#22306a"/></linearGradient><linearGradient id="linear-gradient-7" x1="322.26" y1="220.24" x2="298.01" y2="187.93" gradientUnits="userSpaceOnUse"><stop offset="0" stop-color="#29c3ea"/><stop offset="1" stop-color="#64cced"/></linearGradient><linearGradient id="linear-gradient-8" x1="320.77" y1="294.21" x2="339.41" y2="251.41" gradientUnits="userSpaceOnUse"><stop offset="0" stop-color="#29c3ea"/><stop offset="1" stop-color="#a5def4"/></linearGradient><linearGradient id="linear-gradient-9" x1="346.14" y1="293.59" x2="342.8" y2="286.56" gradientUnits="userSpaceOnUse"><stop offset="0" stop-color="#00a6cf"/><stop offset="1" stop-color="#00a6cf" stop-opacity="0"/></linearGradient><linearGradient id="linear-gradient-10" x1="221.29" y1="385.11" x2="163.36" y2="318.61" gradientUnits="userSpaceOnUse"><stop offset="0.02" stop-color="#4d74b4"/><stop offset="1" stop-color="#dee5f1"/></linearGradient><linearGradient id="linear-gradient-11" x1="190.09" y1="386.27" x2="191.46" y2="328.33" xlink:href="#linear-gradient-3"/><linearGradient id="linear-gradient-12" x1="190.88" y1="353.49" x2="173.31" y2="359.75" gradientUnits="userSpaceOnUse"><stop offset="0" stop-color="#009cc7"/><stop offset="1" stop-color="#64cced"/></linearGradient><linearGradient id="linear-gradient-13" x1="194.66" y1="361.53" x2="183.99" y2="338.78" xlink:href="#linear-gradient-3"/><linearGradient id="linear-gradient-14" x1="195.36" y1="365.82" x2="193.56" y2="352.71" xlink:href="#linear-gradient-3"/><linearGradient id="linear-gradient-15" x1="500.3" y1="423.27" x2="170.4" y2="331.6" gradientTransform="translate(37.1 -29.9) rotate(5.4)" xlink:href="#linear-gradient-12"/><linearGradient id="linear-gradient-16" x1="197.89" y1="416.61" x2="183.88" y2="378.17" gradientUnits="userSpaceOnUse"><stop offset="0.01" stop-color="#7995c6"/><stop offset="1" stop-color="#dee5f1"/></linearGradient><linearGradient id="linear-gradient-17" x1="156.91" y1="425.48" x2="193.16" y2="407.87" xlink:href="#linear-gradient-3"/><linearGradient id="linear-gradient-18" x1="428.35" y1="127.04" x2="423.21" y2="186.43" xlink:href="#linear-gradient-4"/><linearGradient id="linear-gradient-19" x1="431.1" y1="190.96" x2="432.9" y2="126.17" xlink:href="#linear-gradient-12"/><linearGradient id="linear-gradient-20" x1="240.8" y1="129.57" x2="246.97" y2="186.13" xlink:href="#linear-gradient-4"/><linearGradient id="linear-gradient-21" x1="236.44" y1="189.9" x2="237.99" y2="125.12" xlink:href="#linear-gradient-7"/><linearGradient id="linear-gradient-22" x1="417.78" y1="200.03" x2="325.74" y2="151.7" gradientUnits="userSpaceOnUse"><stop offset="0" stop-color="#6a89bf"/><stop offset="1" stop-color="#dee5f1"/></linearGradient><linearGradient id="linear-gradient-23" x1="320.75" y1="237.78" x2="421.01" y2="165.03" xlink:href="#linear-gradient-3"/><linearGradient id="linear-gradient-24" x1="266.36" y1="124.23" x2="388.99" y2="172.56" gradientUnits="userSpaceOnUse"><stop offset="0" stop-color="#17479e"/><stop offset="1" stop-color="#212e66"/></linearGradient><linearGradient id="linear-gradient-25" x1="268.75" y1="195.62" x2="299.64" y2="195.62" gradientTransform="translate(10.5 -46.2)" xlink:href="#linear-gradient-7"/><linearGradient id="linear-gradient-26" x1="348.71" y1="195.62" x2="379.6" y2="195.62" gradientTransform="translate(10.5 -46.2)" xlink:href="#linear-gradient-7"/><linearGradient id="linear-gradient-27" x1="303.36" y1="113.89" x2="278.16" y2="165.31" gradientUnits="userSpaceOnUse"><stop offset="0" stop-color="#fff"/><stop offset="1" stop-color="#fff" stop-opacity="0"/></linearGradient><linearGradient id="linear-gradient-28" x1="545.85" y1="176.49" x2="533.16" y2="189.43" xlink:href="#linear-gradient-12"/><linearGradient id="linear-gradient-29" x1="549.26" y1="175.71" x2="525.35" y2="173.14" gradientUnits="userSpaceOnUse"><stop offset="0" stop-color="#7a97c6"/><stop offset="1" stop-color="#dee5f1"/></linearGradient><linearGradient id="linear-gradient-30" x1="592.25" y1="215.79" x2="560.37" y2="180.82" xlink:href="#linear-gradient-2"/><linearGradient id="linear-gradient-31" x1="562.32" y1="230.91" x2="602.47" y2="185.14" xlink:href="#linear-gradient-3"/><linearGradient id="linear-gradient-32" x1="549.43" y1="281.82" x2="518.58" y2="258.17" xlink:href="#linear-gradient-2"/><linearGradient id="linear-gradient-33" x1="493.49" y1="316.5" x2="562.04" y2="238.35" xlink:href="#linear-gradient-3"/><linearGradient id="linear-gradient-34" x1="133.77" y1="503.09" x2="42.88" y2="413.61" gradientUnits="userSpaceOnUse"><stop offset="0" stop-color="#009dcc"/><stop offset="1" stop-color="#7bd1ee"/></linearGradient><linearGradient id="linear-gradient-35" x1="591.85" y1="464.86" x2="539.95" y2="339.86" xlink:href="#linear-gradient-34"/><linearGradient id="linear-gradient-36" x1="490.61" y1="444.96" x2="550.79" y2="571.94" xlink:href="#linear-gradient"/><linearGradient id="linear-gradient-37" x1="580.29" y1="569.26" x2="473.49" y2="464.13" xlink:href="#linear-gradient-7"/><linearGradient id="linear-gradient-38" x1="76.9" y1="218.48" x2="110.33" y2="289.02" xlink:href="#linear-gradient"/><linearGradient id="linear-gradient-39" x1="60.21" y1="255.8" x2="126.83" y2="255.8" xlink:href="#linear-gradient-7"/><radialGradient id="radial-gradient-3" cx="134.85" cy="90.21" r="13.47" gradientTransform="translate(-2.8 -49.9) scale(0.93)" gradientUnits="userSpaceOnUse"><stop offset="0" stop-color="#bbe6f8"/><stop offset="1" stop-color="#29c3ea" stop-opacity="0"/></radialGradient><radialGradient id="radial-gradient-4" cx="134.85" cy="90.21" r="6.85" xlink:href="#radial-gradient-3"/><radialGradient id="radial-gradient-5" cx="134.85" cy="90.21" r="4.26" xlink:href="#radial-gradient-3"/><radialGradient id="radial-gradient-6" cx="163.27" cy="113.28" r="7.66" xlink:href="#radial-gradient-3"/><radialGradient id="radial-gradient-7" cx="163.27" cy="113.28" r="3.89" xlink:href="#radial-gradient-3"/><radialGradient id="radial-gradient-8" cx="163.27" cy="113.28" r="2.42" xlink:href="#radial-gradient-3"/><radialGradient id="radial-gradient-9" cx="229.58" cy="531.3" r="13.94" xlink:href="#radial-gradient-3"/><radialGradient id="radial-gradient-10" cx="229.58" cy="531.3" r="7.08" xlink:href="#radial-gradient-3"/><radialGradient id="radial-gradient-11" cx="229.58" cy="531.3" r="4.4" xlink:href="#radial-gradient-3"/><radialGradient id="radial-gradient-12" cx="77.86" cy="368.51" r="13.94" xlink:href="#radial-gradient-3"/><radialGradient id="radial-gradient-13" cx="77.86" cy="368.51" r="7.08" xlink:href="#radial-gradient-3"/><radialGradient id="radial-gradient-14" cx="77.86" cy="368.51" r="4.4" xlink:href="#radial-gradient-3"/><radialGradient id="radial-gradient-15" cx="198.94" cy="494.54" r="5.35" xlink:href="#radial-gradient-3"/><radialGradient id="radial-gradient-16" cx="198.94" cy="494.54" r="2.72" xlink:href="#radial-gradient-3"/><radialGradient id="radial-gradient-17" cx="198.94" cy="494.54" r="1.69" xlink:href="#radial-gradient-3"/><radialGradient id="radial-gradient-18" cx="489.19" cy="499.23" r="11.81" xlink:href="#radial-gradient-3"/><radialGradient id="radial-gradient-19" cx="489.19" cy="499.23" r="6" xlink:href="#radial-gradient-3"/><radialGradient id="radial-gradient-20" cx="489.19" cy="499.23" r="3.73" xlink:href="#radial-gradient-3"/><radialGradient id="radial-gradient-21" cx="561.36" cy="344.83" r="12.69" xlink:href="#radial-gradient-3"/><radialGradient id="radial-gradient-22" cx="561.36" cy="344.83" r="6.45" xlink:href="#radial-gradient-3"/><radialGradient id="radial-gradient-23" cx="561.36" cy="344.83" r="4.01" xlink:href="#radial-gradient-3"/><radialGradient id="radial-gradient-24" cx="589.18" cy="314.56" r="7.38" xlink:href="#radial-gradient-3"/><radialGradient id="radial-gradient-25" cx="589.18" cy="314.56" r="3.75" xlink:href="#radial-gradient-3"/><radialGradient id="radial-gradient-26" cx="589.18" cy="314.56" r="2.33" xlink:href="#radial-gradient-3"/><radialGradient id="radial-gradient-27" cx="500.59" cy="201.23" r="11.81" xlink:href="#radial-gradient-3"/><radialGradient id="radial-gradient-28" cx="500.59" cy="201.23" r="6" xlink:href="#radial-gradient-3"/><radialGradient id="radial-gradient-29" cx="500.59" cy="201.23" r="3.73" xlink:href="#radial-gradient-3"/><radialGradient id="radial-gradient-30" cx="566.2" cy="94.92" r="18.83" xlink:href="#radial-gradient-3"/><radialGradient id="radial-gradient-31" cx="566.2" cy="94.92" r="9.57" xlink:href="#radial-gradient-3"/><radialGradient id="radial-gradient-32" cx="566.2" cy="94.92" r="5.95" xlink:href="#radial-gradient-3"/></defs><title>robot</title><g class="cls-1"><g id="Layer_1" data-name="Layer 1"><g class="cls-2"><image class="cls-3" width="2126" height="1921" transform="translate(49.4) scale(0.24)" xlink:href="robot1.png"/><path class="cls-4" d="M529.2,517.2,117.8,480.1c-13.8-1.2-24.7-12.6-24.7-25.4V164.3c0-12.8,11-24.5,24.7-26.1L529.2,90.9c21.8-2.5,39.8,8.8,39.8,25.4V490.8C569,507.4,550.9,519.2,529.2,517.2Z" transform="translate(-26.5 -73.5)"/></g><image class="cls-5" width="2022" height="1817" transform="translate(62.3 12.6) scale(0.24)" xlink:href="robot2.png"/><path class="cls-6" d="M529.2,89.9,117.8,137.5c-14.2,1.6-25.6,13.7-25.6,26.9V454.6c0,13.2,11.4,25,25.6,26.3l411.3,37.3c22.5,2,41.2-10.2,41.2-27.2V116.1C570.3,99,551.7,87.3,529.2,89.9Zm0,426.3L117.8,479.3c-13.3-1.2-23.9-12.2-23.9-24.6V164.2c0-12.4,10.6-23.7,23.9-25.2L529.2,91.9c21-2.4,38.4,8.6,38.4,24.5V147L93.9,188v1.6L567.6,149V490.7C567.6,506.7,550.2,518.1,529.2,516.2Z" transform="translate(-26.5 -73.5)"/><ellipse class="cls-7" cx="310.8" cy="510.3" rx="122" ry="11.7"/><circle class="cls-8" cx="405" cy="312.2" r="205.7"/><path class="cls-9" d="M437.7,265c-21.3-15.1-103.1-12.3-103.1-12.3s-81.8-2.7-103.1,12.3-15.8,107.6,8.9,187.8S302,557.9,334.7,557.9s69.5-24.9,94.1-105.1S459,280.1,437.7,265Z" transform="translate(-26.5 -73.5)"/><path class="cls-10" d="M252.9,261s-16.5,3.5-20.6,12.4S211.5,357,263.7,492.2c0,0-34.5-136.4-29.8-186.8,0,0,1.5-26.7,6.7-33.4A50.6,50.6,0,0,1,252.9,261Z" transform="translate(-26.5 -73.5)"/><path class="cls-11" d="M439.4,266.4c-10.3-7.4-47-9.8-47-9.8l-4.5,4.4s-40.4,19.8-48.1,37.8,17,94.1,8.6,165.1-56.1,78.5-56.1,78.5h0c14,11.1,28.6,15.6,42.4,15.6,32.7,0,69.5-24.9,94.1-105.1C452.8,374.8,458.7,285.1,439.4,266.4Z" transform="translate(-26.5 -73.5)"/><path class="cls-12" d="M315,554.8a63.2,63.2,0,0,0,19.7,3.1c32.7,0,69.5-24.9,94.1-105.1a533,533,0,0,0,16.3-69.6c-9.6,36.7-28,98-50.8,131.5C370.4,549.8,334.3,554.9,315,554.8Z" transform="translate(-26.5 -73.5)"/><path class="cls-13" d="M390,239.4a9.4,9.4,0,0,0-8.2-6.2c-14.1,2.6-47.1,3.1-47.1,3.1s-33-.5-47.1-3.1a9.4,9.4,0,0,0-8.2,6.2c-2.6,6.2-7.5,20.5-5.7,24.2s35.1,14.7,61,14.7,59.2-11.1,61-14.7S392.6,245.5,390,239.4Z" transform="translate(-26.5 -73.5)"/><path class="cls-14" d="M332.1,236.2c-3.6,15.4-14.2,29.8-22.6,39.3a138,138,0,0,0,25.1,2.6c25.9,0,59.2-11.1,61-14.7s-3.1-18-5.7-24.2a9.4,9.4,0,0,0-8.2-6.2c-14.1,2.6-47.1,3.1-47.1,3.1Z" transform="translate(-26.5 -73.5)"/><path class="cls-15" d="M287.6,233.2a9.4,9.4,0,0,0-8.2,6.2c-2.2,5.2-5.9,16.1-6,21.6.3-1,7.6-23.5,11.4-25s17.6.9,26.6-.6h0A217.9,217.9,0,0,1,287.6,233.2Z" transform="translate(-26.5 -73.5)"/><circle class="cls-13" cx="309.4" cy="203.1" r="34.5"/><path class="cls-16" d="M335.8,311a34.5,34.5,0,0,0,22.2-60.8,90.6,90.6,0,0,1-11.5,8.4s8.7,25.7,6.3,30.1-9.6,9.8-13,10-5.8,2.1-7.5,7.1c-.5,1.6-2.9,2.9-5.7,3.8A34.4,34.4,0,0,0,335.8,311Z" transform="translate(-26.5 -73.5)"/><path class="cls-15" d="M302.7,277.4a34.4,34.4,0,0,1,52.5-29.3,34.4,34.4,0,1,0-37.5,57.8A34.4,34.4,0,0,1,302.7,277.4Z" transform="translate(-26.5 -73.5)"/><circle class="cls-17" cx="309.4" cy="203.1" r="21.3"/><image class="cls-18" width="211" height="210" transform="translate(284 178) scale(0.24)" xlink:href="robot3.png"/><circle class="cls-19" cx="309.4" cy="203.1" r="20"/><path class="cls-20" d="M315.8,276.6a20,20,0,0,0,7.4,15.5,102.7,102.7,0,0,0,12.6-8.1c10.1-7.5,10.9-18.1,10.3-24.5a20,20,0,0,0-30.3,17.1Z" transform="translate(-26.5 -73.5)"/><path class="cls-21" d="M322.5,271.3s.9-4.1,3.6-6.3,5.3-.6,4.2,1a37.2,37.2,0,0,0-3.8,6.2C325.7,274.1,321.6,273.8,322.5,271.3Z" transform="translate(-26.5 -73.5)"/><path class="cls-21" d="M323.4,279.3s-1.6-1.8,0-2.7,3.4-.2,3,1.6S324.1,280.5,323.4,279.3Z" transform="translate(-26.5 -73.5)"/><path class="cls-22" d="M354.9,270.5a20.8,20.8,0,0,1-4.5,16.4c-6.4,7.7-17.6,8-23.6,7.5a20,20,0,0,0,28.1-23.9Z" transform="translate(-26.5 -73.5)"/><path class="cls-9" d="M157.5,381.1s-3.8-30.7,8.3-56.4,26.2-35.3,33.4-32.5,14.6,18.6,13.6,43.4-3.6,45.4-3.6,45.4S171,384,157.5,381.1Z" transform="translate(-26.5 -73.5)"/><path class="cls-23" d="M157.5,381.1c13.6,2.9,51.7,0,51.7,0s2.6-20.6,3.6-45.4-6.3-40.5-13.5-43.4c2.2,18-13.6,42.2-26.6,53-6.2,5.1-11.6,17.4-15.7,29.4C157.2,378.7,157.5,381.1,157.5,381.1Z" transform="translate(-26.5 -73.5)"/><path class="cls-24" d="M203.9,342.8c-5.5,22.6-35.2,29.2-35,30.2a42.4,42.4,0,0,0,3,9.3c16.4.4,37.3-1.3,37.3-1.3s2.6-20.6,3.6-45.4c.5-13.1-1.3-23.6-4.2-31.1C209.6,314.6,207.6,327.3,203.9,342.8Z" transform="translate(-26.5 -73.5)"/><path class="cls-10" d="M188.8,296.5s-23.7,20.2-28.6,55C160.2,351.6,167.4,321.6,188.8,296.5Z" transform="translate(-26.5 -73.5)"/><polygon class="cls-13" points="141.4 294.4 149.9 278.7 163.3 281.7 159 296.8 141.4 294.4"/><image class="cls-25" width="95" height="66" transform="translate(144.1 275.2) scale(0.24)" xlink:href="robot4.png"/><path class="cls-26" d="M188.1,360.9l1.6-5.8-13.4-2.9-2.2,4C177.6,357.5,183.2,359.5,188.1,360.9Z" transform="translate(-26.5 -73.5)"/><path class="cls-9" d="M171.8,353.7s9.5-20.1,18.9-20.7,12.2,9.2,2.2,27.6C192.9,360.6,178,356.6,171.8,353.7Z" transform="translate(-26.5 -73.5)"/><path class="cls-27" d="M192.9,360.6c9-16.5,7.6-26.1.5-27.5a31.8,31.8,0,0,1-11.3,17.2c-3.4,2.4-4.7,4.1-5.3,5.3C183.7,358.1,192.9,360.6,192.9,360.6Z" transform="translate(-26.5 -73.5)"/><path class="cls-28" d="M187.2,359l5.7,1.6c6.6-12.2,7.6-20.6,4.8-24.7-.2,3.4-.8,9.3-2.9,14A23.3,23.3,0,0,1,187.2,359Z" transform="translate(-26.5 -73.5)"/><path class="cls-10" d="M178.5,345s6.5-9.9,9.9-10.4C188.4,334.7,181.5,343.2,178.5,345Z" transform="translate(-26.5 -73.5)"/><g class="cls-29"><image class="cls-3" width="1317" height="853" transform="translate(150.2 201.4) scale(0.24)" xlink:href="robot5.png"/><rect class="cls-30" x="199.8" y="304" width="269.8" height="146.4" rx="4.5" ry="4.5" transform="translate(-60.6 -40.2) rotate(-5.4)"/></g><image class="cls-5" width="1210" height="746" transform="translate(163.1 214.2) scale(0.24)" xlink:href="robot6.png"/><path class="cls-31" d="M214.7,463.2a9.3,9.3,0,0,1-9.2-8.4L193.2,325.4a9.3,9.3,0,0,1,8.3-10.1l252.2-23.9a9.3,9.3,0,0,1,10.1,8.3l12.3,129.3a9.3,9.3,0,0,1-8.3,10.1L215.6,463.1ZM454.7,293.4H454L201.8,317.4a7.2,7.2,0,0,0-6.5,7.9l12.3,129.3a7.2,7.2,0,0,0,7.9,6.5l252.2-23.9a7.2,7.2,0,0,0,6.5-7.9L461.8,299.9A7.2,7.2,0,0,0,454.7,293.4Z" transform="translate(-26.5 -73.5)"/><path class="cls-9" d="M179.9,414.9s-15,4-20.4-17.8-.4-29.7,13.2-35.1,27.2-7.5,33.2-3.9,9.3,12.7,10.7,20.4-1.4,24.1-3.5,26.7S188.5,413.6,179.9,414.9Z" transform="translate(-26.5 -73.5)"/><path class="cls-32" d="M216.6,391.2c0-11-3.5-21.1-5.5-22.6s-2.7-1.5-2.9,1-1.5,11.8-11,14.9-13.7,6-21.1,11.5c-4.5,3.4-11.5,3.3-16.1,2.8,5.7,20,19.9,16.2,19.9,16.2,8.6-1.3,31.2-7.2,33.3-9.7S215.8,397.6,216.6,391.2Z" transform="translate(-26.5 -73.5)"/><path class="cls-33" d="M212,404.9c-1.4-1.4-11.6,5.3-23.1,7.1a85.6,85.6,0,0,1-20.3.5,14.6,14.6,0,0,0,11.3,2.4c8.2-1.3,29.1-6.6,32.8-9.4Z" transform="translate(-26.5 -73.5)"/><path class="cls-10" d="M179.1,361.9l.2,1.5c7.3-2.5,16.8-5,16.8-5C192.5,358.5,185.2,360,179.1,361.9Zm-6.4,2.5c-6,3-10.5,9.3-10.5,9.3a82.1,82.1,0,0,1,10.4-7.5,38.4,38.4,0,0,1,5.7-2.4v-1.6A41.7,41.7,0,0,0,172.7,364.3Z" transform="translate(-26.5 -73.5)"/><path class="cls-34" d="M432.1,129.9a3.8,3.8,0,0,1,3.6,2.6,84.5,84.5,0,0,1,3.8,26.1,84.5,84.5,0,0,1-3.8,26.1,3.8,3.8,0,0,1-3.6,2.6H413.9V129.9Z" transform="translate(-26.5 -73.5)"/><image class="cls-35" width="60" height="268" transform="translate(398.8 52.9) scale(0.24)" xlink:href="robot7.png"/><path class="cls-36" d="M431.3,187.2H429a78.1,78.1,0,0,0,5-27.9c0-13.8-2.9-23.7-5.2-29.4H431c2.4,6,5,15.8,5,29.4A80.4,80.4,0,0,1,431.3,187.2Z" transform="translate(-26.5 -73.5)"/><path class="cls-37" d="M237.3,129.9a3.8,3.8,0,0,0-3.6,2.6,84.5,84.5,0,0,0-3.8,26.1,84.5,84.5,0,0,0,3.8,26.1,3.8,3.8,0,0,0,3.6,2.6h18.2V129.9Z" transform="translate(-26.5 -73.5)"/><image class="cls-35" width="60" height="268" transform="translate(203.4 52.9) scale(0.24)" xlink:href="robot8.png"/><path class="cls-38" d="M238.1,187.2h2.2a78.1,78.1,0,0,1-5-27.9c0-13.8,2.9-23.7,5.2-29.4h-2.3c-2.4,6-5,15.8-5,29.4A80.4,80.4,0,0,0,238.1,187.2Z" transform="translate(-26.5 -73.5)"/><ellipse class="cls-9" cx="308.2" cy="84.7" rx="93.8" ry="72.9"/><path class="cls-39" d="M364.9,89.1c8.5,18-3,42-3,42s6.1,20.4-3.1,30.3-21.6,9.3-20.1,26.2c1.2,13.1-21.9,32.1-32.4,40a118.6,118.6,0,0,0,28.4,3.4c51.8,0,93.8-32.6,93.8-72.9C428.5,126.1,401.9,98.9,364.9,89.1Z" transform="translate(-26.5 -73.5)"/><path class="cls-40" d="M411.8,189.2c-21.9,34.3-71.2,39.9-95.9,40.4a120.3,120.3,0,0,0,18.8,1.5c51.8,0,93.8-32.6,93.8-72.9a58.5,58.5,0,0,0-5.6-24.8C426.3,147.9,425.7,167.3,411.8,189.2Z" transform="translate(-26.5 -73.5)"/><path class="cls-10" d="M304.3,92.9s-23.1,5.5-38.7,22.1c0,0-1.9,2.7,7.7-2.6s32.2-15.6,32.7-18S304.3,92.9,304.3,92.9Z" transform="translate(-26.5 -73.5)"/><path class="cls-41" d="M404.3,129.6c-6.2-2.8-68.7-2.9-69.6-2.9h0c-.9,0-63.4.1-69.6,2.9s-12.3,32.2-9.9,38.5,72.5,2.7,79.5,2.7,77.1,3.6,79.5-2.7S410.5,132.4,404.3,129.6Z" transform="translate(-26.5 -73.5)"/><image class="cls-25" width="159" height="86" transform="translate(249.3 65.7) scale(0.24)" xlink:href="robot9.png"/><path class="cls-42" d="M279.2,156h4.4v-4.4h-4.4Zm4.4-4.4h4.4v-4.4h-4.4Zm22.1.2v4.4h4.4v-4.4Zm0-.2v-4.4h-4.4v4.4Zm-17.7-8.8v4.4h13.2v-4.4Z" transform="translate(-26.5 -73.5)"/><image class="cls-25" width="159" height="86" transform="translate(329.2 65.7) scale(0.24)" xlink:href="robot10.png"/><path class="cls-43" d="M385.7,151.6V156h4.4v-4.4Zm-4.4-4.4v4.4h4.4v-4.4Zm-22.1,9h4.4v-4.4h-4.4Zm4.4-4.6H368v-4.4h-4.4Zm4.4-8.8v4.4h13.2v-4.4Z" transform="translate(-26.5 -73.5)"/><path class="cls-44" d="M327.8,126.8c-16.5.1-57.8.6-62.8,2.8s-12.3,32.2-9.9,38.5c1.4,3.7,25.8,4,47.3,3.6C315.7,157.5,324,137.5,327.8,126.8Z" transform="translate(-26.5 -73.5)"/><path class="cls-13" d="M533.8,189.3s4.6,5.8,9.1,8.2l8.4-16.1s-6.6-3.4-9.3-5.7Z" transform="translate(-26.5 -73.5)"/><image class="cls-25" width="79" height="96" transform="translate(503.9 98.8) scale(0.24)" xlink:href="robot11.png"/><path class="cls-45" d="M542,175.7l-8.2,13.6,1.9,2.2c3.9-3.7,8.2-10.4,9.9-13.3A33.8,33.8,0,0,1,542,175.7Z" transform="translate(-26.5 -73.5)"/><path class="cls-9" d="M533.3,191.9s-15.1-17.3-15.1-27.3,4.7-12.2,10.9-7.5,12.7,15.4,16.8,17.8C545.9,175,539.4,187.3,533.3,191.9Z" transform="translate(-26.5 -73.5)"/><path class="cls-46" d="M545.9,175c-4.1-2.5-10.6-13.2-16.8-17.8-3.5-2.6-6.5-2.7-8.5-.6,1.9,0,6.2.4,7.4,4.2s3.1,6.9,6.9,16.7c2.2,5.7-.4,10.2-3,12.9l1.4,1.6C539.4,187.3,545.9,175,545.9,175Z" transform="translate(-26.5 -73.5)"/><path class="cls-10" d="M521.1,159.9s2.1,9.8,3.3,14.1C524.4,174,519.1,167.6,521.1,159.9Z" transform="translate(-26.5 -73.5)"/><path class="cls-9" d="M535.4,206s18.1-34.7,21.6-43.2,15.2-11.3,25.7-9,23.3,17.6,24.7,23.3-25.3,50.1-36.8,54S533.5,215.7,535.4,206Z" transform="translate(-26.5 -73.5)"/><path class="cls-47" d="M607.5,177.1a23.5,23.5,0,0,0-3.7-6.7,177.6,177.6,0,0,0-14.9-12s3.1,5.8,0,11.3-11.7,12.7-21.6,25.7c-7.7,10-24.1,13.8-31.2,14.9,4.1,10.1,24.6,24.1,34.6,20.7C582.2,227.2,609,182.8,607.5,177.1Z" transform="translate(-26.5 -73.5)"/><path class="cls-48" d="M606.4,181.9c-6,10.5-20.6,35.3-27.2,39.1-8.4,4.8-16.3-2.6-17-2.7a15.6,15.6,0,0,0-2,12.1c3.9,1.3,7.5,1.8,10.4.8C580.5,227.8,601.4,195,606.4,181.9Z" transform="translate(-26.5 -73.5)"/><path class="cls-10" d="M548,188.5s13.1-28.5,15.4-29.3-6.2,16.2-8.5,20.8S548,194.6,548,188.5Z" transform="translate(-26.5 -73.5)"/><path class="cls-9" d="M498,305.7s-35.3,8.7-23.3-22.2,23-43,30-59.4,23.9-26.4,43.4-19.1,33.6,31.9,27,46.4S521.8,300.3,498,305.7Z" transform="translate(-26.5 -73.5)"/><path class="cls-49" d="M556.1,209.1c6.1,12.3,2.5,24.6-4.5,32.6s-19,20.6-33.9,35.5c-12,12-36.4,17.7-45.4,19.4,1.9,14.9,25.6,9.1,25.6,9.1,23.8-5.4,70.6-39.7,77.2-54.3C580.7,238.9,571.2,219.1,556.1,209.1Z" transform="translate(-26.5 -73.5)"/><path class="cls-50" d="M575.1,251.4a21.6,21.6,0,0,0,1.3-11.9c-2.9,10.5-10.9,22.6-38.4,41.9-39.4,27.8-51.1,22.9-60.2,23.3,7.6,4,20.1.9,20.1.9C521.8,300.3,568.6,266,575.1,251.4Z" transform="translate(-26.5 -73.5)"/><path class="cls-10" d="M479.6,277.9s20.1-35.5,23.7-44.7,11.6-24.7,27-27c0,0-15.9,8.2-23.4,26.2S479.6,277.9,479.6,277.9Z" transform="translate(-26.5 -73.5)"/><g class="cls-51"><image class="cls-52" width="466" height="576" transform="translate(0.3 309.7) scale(0.24)" xlink:href="robot12.png"/><path class="cls-53" d="M110.5,449.3h0a51.3,51.3,0,0,0-.9-5.1h0l8.9-15.3a65.9,65.9,0,0,0-4.1-8.1,58.9,58.9,0,0,0-5-7.2l-13.9,6.6h0a30.1,30.1,0,0,0-3.5-2.4h0l-4-18.9a32.7,32.7,0,0,0-6.9-1.2,30.9,30.9,0,0,0-6.8.4l-3.9,18.1h0a23.5,23.5,0,0,0-3.3,1.9h0l-12.9-8.3a45.7,45.7,0,0,0-4.5,6.1,52.7,52.7,0,0,0-3.6,7.1l8,15.9h0a46.3,46.3,0,0,0-.8,4.7h0l-12,7.7a73.3,73.3,0,0,0,2.9,17.5l13.8,2.6h0a44.7,44.7,0,0,0,2.3,4.1h0l-2.4,18.2a49.1,49.1,0,0,0,5.7,5.4,42.3,42.3,0,0,0,6.3,4.1l9.5-13h0l1.9.3,1.9.2h0l9.7,15.9a31.7,31.7,0,0,0,6.6-2.3,34.7,34.7,0,0,0,6.2-3.8L103,481h0a33.2,33.2,0,0,0,2.4-3.7h0l15.3.9a63.4,63.4,0,0,0,2.2-8.7,69.5,69.5,0,0,0,1-9.2Zm-39.9,2.1c0-7.8,4.8-13.8,10.7-13.2s10.9,7.5,10.9,15.5-4.9,13.9-10.9,13.2S70.6,459.2,70.6,451.4Z" transform="translate(-26.5 -73.5)"/></g><g class="cls-51"><image class="cls-52" width="525" height="464" transform="translate(471.4 254.2) scale(0.24)" xlink:href="robot13.png"/><path class="cls-54" d="M546.1,425.6l27.3,1.2V338.1H546.1Zm-37.8-1.7,26.3,1.2V375.5l-26.3-.6Zm77.1-67.2v70.7l28.3,1.3V357Z" transform="translate(-26.5 -73.5)"/></g><g class="cls-55"><image class="cls-56" width="722" height="631" transform="translate(410.2 367.4) scale(0.24)" xlink:href="robot14.png"/><path class="cls-57" d="M578.5,575.1,466.3,562.2c-7-.8-12.7-5.9-12.7-11.3V467.1c0-5.4,5.7-9.5,12.7-9l112.1,7.1c7.9.5,14.3,5.6,14.3,11.4v89.6C592.8,572.1,586.4,576,578.5,575.1Z" transform="translate(-26.5 -73.5)"/></g><image class="cls-5" width="620" height="527" transform="translate(422.5 379.8) scale(0.24)" xlink:href="robot15.png"/><path class="cls-31" d="M578.5,576,466.3,563c-7.7-.9-13.9-6.4-13.9-12.4V466.8c0-5.9,6.2-10.4,13.9-9.9L578.5,464c8.6.5,15.7,6.2,15.7,12.5v89.7C594.2,572.6,587.1,577,578.5,576ZM466.3,458.9c-6.3-.4-11.5,3.3-11.5,8.2v83.8c0,4.9,5.1,9.5,11.5,10.2l112.1,12.9c7.1.8,12.9-2.8,12.9-8V476.3c0-5.2-5.8-9.9-12.9-10.3Z" transform="translate(-26.5 -73.5)"/><image class="cls-58" width="484" height="304" transform="translate(437.9 401.9) scale(0.24)" xlink:href="robot16.png"/><path class="cls-59" d="M573.4,486.8l-84.8-6.3v6.5l84.8,6.5ZM468,485.5l8.7.7v-6.5L468,479Zm91.2,17.3L488.6,497v6.5l70.5,6Zm-91.2-1,8.7.7V496l-8.7-.7Zm20.6,11.7V520l88.3,8.2v-6.8ZM468,518.1l8.7.8v-6.5l-8.7-.8Zm54,21.8,46.7,4.7v-6.8L522,533.2Zm-33.4-3.4,24.7,2.5v-6.6L488.6,530ZM468,534.4l8.7.9v-6.5l-8.7-.9Z" transform="translate(-26.5 -73.5)"/><g class="cls-60"><image class="cls-61" width="572" height="404" transform="translate(0 134.9) scale(0.24)" xlink:href="robot17.png"/><path class="cls-62" d="M137.6,285.9l-85.9,2.3a7.7,7.7,0,0,1-8-7.6V239.1a8.5,8.5,0,0,1,8-8.3l85.9-5.3c5-.3,9,3.2,9,7.8v44.1C146.6,281.9,142.5,285.8,137.6,285.9Z" transform="translate(-26.5 -73.5)"/></g><image class="cls-5" width="466" height="297" transform="translate(12.9 147.7) scale(0.24)" xlink:href="robot18.png"/><path class="cls-31" d="M137.6,286.7l-85.9,2.2a8.4,8.4,0,0,1-8.8-8.4V239.2a9.4,9.4,0,0,1,8.8-9.1l85.9-5.4c5.4-.3,9.9,3.5,9.9,8.5v44.1C147.4,282.3,143,286.5,137.6,286.7ZM51.7,231.6a7.7,7.7,0,0,0-7.2,7.5v41.4a6.9,6.9,0,0,0,7.2,6.9l85.9-2.3c4.5-.1,8.1-3.6,8.1-7.7v-44c0-4.1-3.6-7.3-8.1-7Z" transform="translate(-26.5 -73.5)"/><image class="cls-58" width="308" height="135" transform="translate(30.1 166.2) scale(0.24)" xlink:href="robot19.png"/><path class="cls-63" d="M60.2,246.7v5.2l66.6-3.2v-5.4Zm24.4,12.4,42.2-1.8v-5.4l-42.2,2Zm-5.7-5-18.7.9v5.2l18.7-.8ZM60.2,268.4l45.1-1.7v-5.3l-45.1,1.9Z" transform="translate(-26.5 -73.5)"/><circle class="cls-64" cx="122.4" cy="33.9" r="12.5"/><circle class="cls-65" cx="122.4" cy="33.9" r="6.4"/><circle class="cls-66" cx="122.4" cy="33.9" r="4"/><circle class="cls-67" cx="148.8" cy="55.3" r="7.1"/><circle class="cls-68" cx="148.8" cy="55.3" r="3.6"/><circle class="cls-69" cx="148.8" cy="55.3" r="2.2"/><circle class="cls-70" cx="210.4" cy="443.5" r="12.9"/><circle class="cls-71" cx="210.4" cy="443.5" r="6.6"/><circle class="cls-72" cx="210.4" cy="443.5" r="4.1"/><circle class="cls-73" cx="69.5" cy="292.3" r="12.9"/><circle class="cls-74" cx="69.5" cy="292.3" r="6.6"/><circle class="cls-75" cx="69.5" cy="292.3" r="4.1"/><circle class="cls-76" cx="181.9" cy="409.4" r="5"/><circle class="cls-77" cx="181.9" cy="409.4" r="2.5"/><circle class="cls-78" cx="181.9" cy="409.4" r="1.6"/><circle class="cls-79" cx="451.4" cy="413.7" r="11"/><circle class="cls-80" cx="451.4" cy="413.7" r="5.6"/><circle class="cls-81" cx="451.4" cy="413.7" r="3.5"/><circle class="cls-82" cx="518.4" cy="270.3" r="11.8"/><circle class="cls-83" cx="518.4" cy="270.3" r="6"/><circle class="cls-84" cx="518.4" cy="270.3" r="3.7"/><circle class="cls-85" cx="544.3" cy="242.2" r="6.9"/><circle class="cls-86" cx="544.3" cy="242.2" r="3.5"/><circle class="cls-87" cx="544.3" cy="242.2" r="2.2"/><circle class="cls-88" cx="462" cy="137" r="11"/><circle class="cls-89" cx="462" cy="137" r="5.6"/><circle class="cls-90" cx="462" cy="137" r="3.5"/><circle class="cls-91" cx="522.9" cy="38.3" r="17.5"/><circle class="cls-92" cx="522.9" cy="38.3" r="8.9"/><circle class="cls-93" cx="522.9" cy="38.3" r="5.5"/></g></g></svg>